<svg id="eSiMtHFTd2a1" xmlns="http://www.w3.org/2000/svg" xmlns:xlink="http://www.w3.org/1999/xlink" viewBox="0 0 300 300" shape-rendering="geometricPrecision" text-rendering="geometricPrecision">
<rect width="34.046743" height="124.37484" rx="0" ry="0" transform="matrix(.792451-.103393 0.098139 0.75218 148.726879 187.202018)" fill="#0e254f"/>
<rect width="34.046743" height="124.37484" rx="0" ry="0" transform="matrix(.798367 0.035761-.031178 0.696055 106.901387 192.746929)" fill="#0e254f" stroke-width="0"/>
<ellipse rx="47.679997" ry="20.26181" transform="matrix(.864429 0 0 1.075126 141.594301 185.189222)" fill="#0e254f" stroke-width="0"/>
<rect width="31.938943" height="80.591327" rx="13" ry="13" transform="matrix(.807117-.139721 0.211049 1.219156 165.033464 91.398327)" fill="#fdc473" stroke-width="0"/>
<rect width="103.290759" height="106.426794" rx="15" ry="15" transform="matrix(.802035 0 0 0.998984 100.172897 84.874016)" fill="#fff" stroke-width="0"/>
<rect width="95.359995" height="16.576154" rx="0" ry="0" transform="matrix(.871868 0 0 0.653312 100.023634 176.591082)" fill="#0e254f" stroke-width="0"/>
<rect width="95.359995" height="16.576154" rx="8.29" ry="8.29" transform="matrix(.871868 0 0 0.451675 100.023637 183.749299)" fill="#0e254f" stroke-width="0"/>
<rect width="31.938943" height="80.591327" rx="13" ry="13" transform="matrix(.805304 0.149815-.218509 1.174552 90.374735 90.441674)" fill="#fdc473" stroke-width="0"/>
<ellipse rx="36.947973" ry="36.098038" transform="matrix(.331823 0 0 0.412603 139.700506 80.654308)" fill="#f6b65c" stroke-width="0"/>
<ellipse rx="36.947973" ry="36.098038" transform="translate(137.632339 43.829016)" fill="#f6b65c" stroke-width="0"/>
<ellipse rx="36.947973" ry="36.098038" transform="matrix(.9 0 0 1 141.169921 43.829016)" fill="#fdc473" stroke-width="0"/>
<ellipse rx="36.947973" ry="36.098038" transform="matrix(.227224 0 0 0.245121 174.620252 43.829016)" fill="#fdc473" stroke-width="0"/>
<ellipse rx="36.947973" ry="36.098038" transform="matrix(.189847 0 0 0.245121 99.252908 43.829016)" fill="#f6b65c" stroke-width="0"/>
<ellipse rx="3.480366" ry="3.910718" transform="translate(177.060678 43.829016)" fill="#d4a054" stroke-width="0"/>
<ellipse rx="3.480366" ry="3.910718" transform="translate(98.252908 44.094252)" fill="#d4a054" stroke-width="0"/>
<ellipse rx="5.009339" ry="6.011208" transform="translate(123.887089 41.993762)" stroke-width="0"/>
<ellipse rx="5.009339" ry="6.011208" transform="translate(155.946862 41.993762)" stroke-width="0"/>
<rect width="10.01868" height="21.039226" rx="0" ry="0" transform="matrix(-.378334 0.015696 0.020171 0.486186 143.065122 46.480809)" fill="#d4a054" stroke-width="0"/>
<line x1="-13.525217" y1="-0.144752" x2="13.525217" y2="0.144752" transform="matrix(.318564 0.063344-.195023 0.980799 135.363623 66.758856)" fill="none" stroke="#d4a054" stroke-width="3"/>
<line x1="-13.525217" y1="-0.144752" x2="13.525217" y2="0.144752" transform="matrix(.301196-.121559 0.374256 0.927325 149.54584 65.979221)" fill="none" stroke="#d4a054" stroke-width="3"/>
<line x1="-13.525217" y1="-0.144752" x2="13.525217" y2="0.144752" transform="matrix(.323551-.028471 0.087656 0.996151 142.551132 67.372491)" fill="none" stroke="#d4a054" stroke-width="3"/>
<line x1="-5.009339" y1="0" x2="5.009339" y2="0" transform="translate(122.887089 32.980629)" fill="none" stroke="#000" stroke-width="3"/>
<line x1="-5.009339" y1="0" x2="5.009339" y2="0" transform="translate(155.946862 32.980629)" fill="none" stroke="#000" stroke-width="3"/>
<ellipse rx="12.119898" ry="11.219161" transform="matrix(1.121371 0 0 1.213249 100.684366 102.778696)" fill="#fff" stroke-width="0"/>
<ellipse rx="12.119898" ry="11.219161" transform="matrix(1.121371 0 0 1.213249 179.624366 100.547429)" fill="#fff" stroke-width="0"/>
<rect width="29.457025" height="11.380369" rx="0" ry="0" transform="matrix(.965049 0.174804-.178235 0.983988 87.201247 102.533538)" fill="#fff" stroke-width="0"/>
<rect width="29.457025" height="11.380369" rx="0" ry="0" transform="matrix(.971416-.135011 0.137661 0.990479 164.328186 102.035254)" fill="#fff" stroke-width="0"/>
<rect width="42.291257" height="15.399927" rx="4" ry="4" transform="translate(103.023624 276.224658)" stroke-width="0"/>
<rect width="42.291257" height="15.399927" rx="4" ry="4" transform="translate(160.580636 276.126096)" stroke-width="0"/>
<rect width="15.109444" height="7.409165" rx="3" ry="3" transform="matrix(.715374 0 0 1.428013 192.274379 276.126097)" fill="#fff" stroke-width="0"/>
<rect width="15.109444" height="7.409165" rx="2" ry="2" transform="matrix(1.7 0 0-.6 160.537281 291.624585)" fill="#fff" stroke-width="0"/>
<rect width="42.182908" height="2.732992" rx="0" ry="0" transform="matrix(1.005137 0 0 1.3 160.580639 284.501201)" fill="#e10116" stroke-width="0"/>
<ellipse rx="1.697398" ry="1.998592" transform="translate(178.049307 280.437648)" fill="#fff" stroke-width="0"/>
<ellipse rx="1.697398" ry="1.998592" transform="translate(186.065054 280.437648)" fill="#fff" stroke-width="0"/>
<rect width="15.109444" height="7.409165" rx="3" ry="3" transform="matrix(.715374 0 0 1.428013 134.717367 276.224658)" fill="#fff" stroke-width="0"/>
<rect width="15.109444" height="7.409165" rx="2" ry="2" transform="matrix(1.7 0 0-.6 102.980268 291.723146)" fill="#fff" stroke-width="0"/>
<rect width="42.182908" height="2.732992" rx="0" ry="0" transform="matrix(1.005137 0 0 1.3 103.023626 284.599762)" fill="#e10116" stroke-width="0"/>
<ellipse rx="1.697398" ry="1.998592" transform="translate(120.492294 280.536209)" fill="#fff" stroke-width="0"/>
<ellipse rx="1.697398" ry="1.998592" transform="translate(128.50804 280.536209)" fill="#fff" stroke-width="0"/>
<rect width="28.547354" height="7.01298" rx="0" ry="0" transform="matrix(.972032 0.176798-.080869 0.444619 86.192251 108.132611)" fill="#078431" stroke-width="0"/>
<rect width="28.547354" height="7.01298" rx="0" ry="0" transform="matrix(.972032 0.176798-.080869 0.444619 87.093457 102.778696)" fill="#e10118" stroke-width="0"/>
<rect width="28.547354" height="7.01298" rx="0" ry="0" transform="matrix(.453749-.086219 0.084361 0.44397 180.181557 101.224196)" fill="#e10118" stroke-width="0"/>
<rect width="28.547354" height="7.01298" rx="0" ry="0" transform="matrix(.457594-.106122 0.102095 0.44023 180.736389 107.111651)" fill="#078431" stroke-width="0"/>


</svg>
