<svg xmlns="http://www.w3.org/2000/svg" version="1.1" width="674" height="1280">
<path d="M0 0 C2.94 1.25 2.94 1.25 6 3 C6.69 5.11 6.69 5.11 7 7 C0.98 12.07 -4.96 16.47 -12 20 C-13 20.57 -13 20.57 -14.01 21.16 C-16.76 22.32 -19.03 21.73 -21.9 21.19 C-24.02 20.89 -24.02 20.89 -26.13 21.46 C-30.39 22.26 -34.61 22.14 -38.94 22.12 C-39.82 22.13 -40.7 22.13 -41.61 22.14 C-46.21 22.13 -50.46 21.8 -55 21 C-55.33 21.33 -55.66 21.66 -56 22 C-66.03 21.24 -76.8 15.04 -84 8 C-84.33 7.01 -84.66 6.02 -85 5 C-83.68 3.68 -82.36 2.36 -81 1 C-76.16 3.08 -71.44 5.13 -67 8 C-66.67 7.34 -66.34 6.68 -66 6 C-65.34 5.67 -64.68 5.34 -64 5 C-63.9 5.94 -63.9 5.94 -63.8 6.89 C-63.2 9.21 -63.2 9.21 -60.86 10.01 C-59.98 10.23 -59.09 10.46 -58.19 10.69 C-57.31 10.92 -56.44 11.15 -55.54 11.39 C-54.7 11.59 -53.86 11.79 -53 12 C-52.06 12.26 -52.06 12.26 -51.1 12.53 C-48.97 13.01 -47.1 13.13 -44.92 13.13 C-43.77 13.13 -43.77 13.13 -42.59 13.14 C-41.8 13.13 -41 13.13 -40.19 13.12 C-39.01 13.13 -39.01 13.13 -37.82 13.14 C-30.67 13.12 -23.76 12.47 -17 10 C-15.06 8.03 -15.06 8.03 -14 6 C-12.95 6.23 -11.9 6.45 -10.81 6.69 C-6.56 7.04 -5.24 6.68 -2 4 C-0.67 1.93 -0.67 1.93 0 0 Z " fill="#8C1A27" transform="translate(438,449)"/>
<path d="M0 0 C6.36 0.74 12.64 0.66 19.04 0.5 C19.83 0.49 20.62 0.48 21.44 0.46 C22.15 0.45 22.86 0.43 23.59 0.41 C25.5 0.62 25.5 0.62 28.5 2.62 C28.5 3.62 28.5 4.61 28.5 5.62 C29.49 5.95 30.48 6.29 31.5 6.62 C29.83 9.96 28.17 13.29 26.5 16.62 C21.86 16.7 17.41 16.67 12.81 16.06 C9.17 15.6 6.11 15.83 2.5 16.62 C1.84 16.62 1.18 16.62 0.5 16.62 C-1.18 17.26 -2.85 17.93 -4.5 18.62 C-3.01 24.43 0.09 28.8 3.5 33.62 C1.66 37.77 -0.41 39.54 -4.5 41.62 C-7.38 40.88 -7.38 40.88 -9.5 39.62 C-9.15 36.38 -8.94 35.01 -6.44 32.81 C-5.48 32.22 -5.48 32.22 -4.5 31.62 C-4.61 29.17 -4.61 29.17 -5.5 26.62 C-6.26 26.36 -7.03 26.09 -7.81 25.81 C-11.43 24.21 -12.2 22.22 -13.79 18.71 C-14.73 15.96 -14.63 13.51 -14.5 10.62 C-15.15 8.95 -15.81 7.28 -16.5 5.62 C-16.17 4.96 -15.84 4.31 -15.5 3.62 C-13.19 4.29 -10.88 4.94 -8.5 5.62 C-8.4 5.01 -8.29 4.39 -8.19 3.75 C-6.78 -0.61 -3.91 -0.56 0 0 Z " fill="#8A8C8D" transform="translate(388.5,390.375)"/>
<path d="M0 0 C2.56 0.38 2.56 0.38 4.38 2 C5.85 4.95 5.78 7.12 5.56 10.38 C6.22 10.38 6.88 10.38 7.56 10.38 C6.24 14.34 4.82 16.74 1.56 19.38 C0.41 19.79 -0.75 20.2 -1.94 20.62 C-6.48 22.46 -6.48 22.46 -9.44 30.38 C4.42 31.37 4.42 31.37 18.56 32.38 C19.55 34.69 20.54 37 21.56 39.38 C20.9 40.37 20.24 41.36 19.56 42.38 C16.39 42.73 13.33 42.81 10.15 42.81 C6.6 42.92 4.87 43.12 2.09 45.41 C1.58 46.06 1.08 46.71 0.56 47.38 C0.56 46.72 0.56 46.06 0.56 45.38 C-0.43 45.38 -1.42 45.38 -2.44 45.38 C-2.44 44.72 -2.44 44.06 -2.44 43.38 C-3.49 43.33 -4.53 43.28 -5.61 43.23 C-6.99 43.15 -8.37 43.08 -9.75 43 C-10.79 42.95 -10.79 42.95 -11.84 42.91 C-15.51 42.69 -17.32 42.46 -20.44 40.38 C-21.2 33.1 -19.8 26.52 -15.38 20.62 C-10.35 16.78 -4.67 13.7 1.56 12.38 C0.9 12.05 0.24 11.71 -0.44 11.38 C-0.44 10.71 -0.44 10.06 -0.44 9.38 C-1.76 8.71 -3.08 8.06 -4.44 7.38 C-4.56 5 -4.56 5 -4.44 2.38 C-2.44 0.38 -2.44 0.38 0 0 Z " fill="#343337" transform="translate(398.4375,413.625)"/>
<path d="M0 0 C0.66 0 1.32 0 2 0 C1.37 3.97 0.1 7.23 -1.56 10.88 C-3.59 15.59 -4.58 18.91 -4 24 C-5.32 24 -6.64 24 -8 24 C-8.66 24.66 -9.32 25.32 -10 26 C-9.64 26.61 -9.28 27.23 -8.91 27.86 C-8.44 28.67 -7.98 29.48 -7.5 30.31 C-7.04 31.11 -6.57 31.91 -6.09 32.74 C-5 35 -5 35 -5 38 C-10.44 38.5 -10.44 38.5 -16 39 C-16 39.66 -16 40.32 -16 41 C-15.37 41.19 -14.75 41.39 -14.1 41.59 C-13.28 41.85 -12.47 42.11 -11.62 42.38 C-10.81 42.63 -10 42.89 -9.16 43.15 C-7 44 -7 44 -5 46 C-4.88 49.62 -4.88 49.62 -5 53 C-5.66 53 -6.32 53 -7 53 C-7 52.34 -7 51.68 -7 51 C-8.17 50.96 -8.17 50.96 -9.35 50.92 C-12.86 50.81 -16.37 50.69 -19.88 50.56 C-21.71 50.5 -21.71 50.5 -23.58 50.44 C-25.33 50.38 -25.33 50.38 -27.12 50.32 C-28.2 50.28 -29.27 50.24 -30.39 50.21 C-33 50 -33 50 -35 49 C-34.37 44.93 -32.64 42.12 -30 39 C-28.03 38.31 -28.03 38.31 -25.88 37.88 C-22.01 37.43 -22.01 37.43 -20.5 35.06 C-19.74 31.95 -19.98 30.05 -21 27 C-20.34 26.34 -19.68 25.68 -19 25 C-18.01 25 -17.02 25 -16 25 C-13.44 22.69 -13.44 22.69 -11 20 C-10.26 19.38 -10.26 19.38 -9.5 18.74 C-7.34 16.24 -6.54 13.54 -5.44 10.44 C-3.21 4.21 -3.21 4.21 -1 2 C-0.67 1.34 -0.34 0.68 0 0 Z " fill="#727672" transform="translate(424,395)"/>












<path d="M0 0 C0.99 0.33 1.98 0.66 3 1 C2.55 2.58 2.09 4.17 1.62 5.75 C1.24 7.07 1.24 7.07 0.85 8.42 C-1.23 14.72 -4.51 19.59 -10.31 22.88 C-11.64 23.43 -11.64 23.43 -13 24 C-14.32 21.69 -15.64 19.38 -17 17 C-18.67 16.96 -20.33 16.96 -22 17 C-23.26 18.05 -23.26 18.05 -23.25 20.44 C-23.13 21.71 -23.13 21.71 -23 23 C-22.01 23.66 -21.02 24.32 -20 25 C-20 25.66 -20 26.32 -20 27 C-19.01 27.33 -18.02 27.66 -17 28 C-17.8 28.33 -18.59 28.65 -19.41 28.99 C-26.06 31.71 -26.06 31.71 -32.5 34.88 C-35 36 -35 36 -37.38 35.69 C-37.91 35.46 -38.45 35.23 -39 35 C-38.67 34.01 -38.34 33.02 -38 32 C-37.42 32.21 -36.85 32.41 -36.25 32.62 C-33.35 33.11 -32.38 32.69 -30 31 C-28.25 28.47 -28.25 28.47 -27 26 C-29.71 21.85 -29.71 21.85 -32.75 17.94 C-34.33 15.49 -34.24 13.85 -34 11 C-31.69 9.68 -29.38 8.36 -27 7 C-27 7.66 -27 8.32 -27 9 C-26.24 8.65 -25.47 8.3 -24.69 7.94 C-19.61 6.65 -15.15 7.32 -10 8 C-9.25 8.1 -8.5 8.2 -7.73 8.3 C-6.15 8.52 -4.58 8.75 -3 9 C-2.01 6.03 -1.02 3.06 0 0 Z " fill="#B7BABF" transform="translate(418,398)"/>



<path d="M0 0 C2.94 1.25 2.94 1.25 6 3 C6.69 5.11 6.69 5.11 7 7 C0.98 12.07 -4.96 16.47 -12 20 C-13.01 20.57 -13.01 20.57 -14.04 21.16 C-16.71 22.3 -18.83 21.68 -21.63 21.23 C-26.1 20.8 -30.55 21.47 -35 22 C-34.67 19.36 -34.34 16.72 -34 14 C-33.36 13.88 -32.72 13.76 -32.06 13.63 C-29.37 13.11 -26.68 12.56 -24 12 C-22.95 11.78 -22.95 11.78 -21.88 11.56 C-18.83 10.83 -17.2 10.22 -15.06 7.88 C-14.71 7.26 -14.36 6.64 -14 6 C-12.42 6.34 -12.42 6.34 -10.81 6.69 C-6.56 7.04 -5.24 6.68 -2 4 C-0.67 1.93 -0.67 1.93 0 0 Z " fill="#8B1926" transform="translate(438,449)"/>











<path d="M0 0 C2.62 0.38 2.62 0.38 5 1 C6.74 8.17 7.38 15.22 7.75 22.58 C7.92 25.93 7.92 25.93 8.59 28.89 C8.73 29.58 8.86 30.28 9 31 C7.41 32.59 5.75 32.17 3.56 32.19 C2.76 32.2 1.96 32.22 1.13 32.23 C-1 32 -1 32 -3 30 C-3.17 27.23 -3.17 27.23 -3.05 23.75 C-3 22.5 -2.96 21.25 -2.92 19.97 C-2.86 18.66 -2.81 17.35 -2.75 16 C-2.71 14.69 -2.67 13.38 -2.63 12.03 C-2.26 2.26 -2.26 2.26 0 0 Z " fill="#A11728" transform="translate(365,409)"/>



<path d="M0 0 C2.12 0.38 2.12 0.38 4 1 C6.23 11 7.17 20.76 7 31 C3.27 32.05 -0.13 32.07 -4 32 C-4.38 30.34 -4.71 28.68 -5 27 C-4.67 26.67 -4.34 26.34 -4 26 C-3.8 24.25 -3.65 22.48 -3.54 20.72 C-3.46 19.65 -3.38 18.58 -3.3 17.48 C-3.14 15.21 -2.99 12.93 -2.84 10.66 C-2.76 9.59 -2.68 8.51 -2.6 7.41 C-2.53 6.42 -2.46 5.43 -2.39 4.41 C-2 2 -2 2 0 0 Z " fill="#A01728" transform="translate(429,409)"/>



















<path d="M0 0 C0.25 1.26 0.5 2.52 0.75 3.81 C1.48 6.83 1.73 7.77 4.12 9.88 C4.74 10.25 5.36 10.62 6 11 C6 11.66 6 12.32 6 13 C4.35 12.34 2.7 11.68 1 11 C0.28 11.78 -0.44 12.57 -1.19 13.38 C-3.86 15.87 -5.44 17.27 -9 18 C-12.2 16.35 -13.81 14.38 -15 11 C-15.12 8.25 -15.12 8.25 -15 6 C-14.01 5.67 -13.02 5.34 -12 5 C-12 4.01 -12 3.02 -12 2 C-11.06 1.91 -11.06 1.91 -10.1 1.82 C-8.88 1.69 -8.88 1.69 -7.62 1.56 C-6.81 1.48 -6 1.4 -5.16 1.32 C-3.31 1.05 -1.79 0 0 0 Z " fill="#C38387" transform="translate(438,439)"/>






<path d="M0 0 C9.11 0.99 9.11 0.99 12.25 4.56 C13.25 9.14 12.36 12.59 11 17 C8.42 17.97 7.34 18.14 4.75 17.07 C3.98 16.62 3.22 16.16 2.44 15.69 C1.67 15.24 0.91 14.79 0.12 14.32 C-1.61 13.25 -3.31 12.13 -5 11 C-3.55 7.21 -1.85 3.61 0 0 Z " fill="#C18286" transform="translate(362,439)"/>
















<path d="M0 0 C7.6 -0.3 14.66 0.59 22.12 2 C23.18 2.19 24.23 2.38 25.31 2.58 C27.88 3.04 30.44 3.52 33 4 C33 4.66 33 5.32 33 6 C35.97 6 38.94 6 42 6 C42 6.33 42 6.66 42 7 C38.7 7 35.4 7 32 7 C32 7.66 32 8.32 32 9 C26.88 8.55 22 7.87 17.04 6.53 C14.83 5.96 12.61 5.51 10.38 5.06 C6.58 4.24 3.4 2.92 0 1 C0 0.67 0 0.34 0 0 Z " fill="#F7F7EC" transform="translate(171,465)"/>
<path d="M0 0 C0.33 0.99 0.66 1.98 1 3 C2.73 3.56 2.73 3.56 5 4 C11.74 6.74 11.74 6.74 13 8 C13.04 10.33 13.04 12.67 13 15 C12.34 15 11.68 15 11 15 C11 14.34 11 13.68 11 13 C9.95 13.1 8.9 13.21 7.81 13.31 C4 13 4 13 1.19 10.62 C0.47 9.76 -0.26 8.89 -1 8 C-2.19 6.81 -3.39 5.64 -4.62 4.5 C-6 3 -6 3 -6 1 C-6.66 0.67 -7.32 0.34 -8 0 C-5.14 -1.43 -3.07 -0.6 0 0 Z " fill="#636160" transform="translate(406,433)"/>


<path d="M0 0 C8.11 6.67 8.11 6.67 10 10 C10 11.32 10 12.64 10 14 C9.34 14 8.68 14 8 14 C7.67 16.97 7.34 19.94 7 23 C3.44 19.89 1.87 16.96 0.19 12.56 C-0.25 11.45 -0.69 10.34 -1.14 9.19 C-2.02 5.91 -2.04 4.2 -1 1 C-0.67 0.67 -0.34 0.34 0 0 Z " fill="#0C254B" transform="translate(463,974)"/>

<path d="M0 0 C3.55 3.55 3.85 5.46 4.13 10.3 C4.1 21.21 3.52 32.11 3 43 C2.67 43 2.34 43 2 43 C1.01 37.06 0.02 31.12 -1 25 C-1.33 25 -1.66 25 -2 25 C-2.33 20.05 -2.66 15.1 -3 10 C-2.34 10 -1.68 10 -1 10 C-0.67 6.7 -0.34 3.4 0 0 Z " fill="#081D40" transform="translate(362,948)"/>

<path d="M0 0 C1.67 0.74 1.67 0.74 3.38 1.5 C6.65 3.13 6.65 3.13 9 3 C8.69 3.6 8.38 4.2 8.06 4.81 C6.9 7.09 6.9 7.09 6 10 C8.57 11.28 10.77 11.33 13.62 11.56 C14.63 11.65 15.63 11.73 16.66 11.82 C17.82 11.91 17.82 11.91 19 12 C19 12.33 19 12.66 19 13 C14.05 13.33 9.1 13.66 4 14 C4 13.34 4 12.68 4 12 C1.36 12.66 -1.28 13.32 -4 14 C-4.5 7.88 -3.25 4.98 0 0 Z " fill="#454648" transform="translate(383,434)"/>

<path d="M0 0 C0.33 0 0.66 0 1 0 C2.33 5.97 2.09 11.93 2 18 C2.66 18 3.32 18 4 18 C4.14 19.03 4.29 20.06 4.44 21.12 C4.76 23.34 5.11 25.55 5.53 27.75 C6.07 31.48 6.11 35.12 6.06 38.88 C6.06 39.56 6.05 40.25 6.05 40.96 C6.04 42.64 6.02 44.32 6 46 C3.75 43.75 3.55 42.79 2.94 39.75 C2.77 38.94 2.6 38.13 2.43 37.3 C2.1 35.52 1.79 33.73 1.5 31.94 C1.04 28.88 1.04 28.88 -0.05 25.5 C-1.37 20.3 -0.99 15.32 -0.62 10 C-0.57 9.03 -0.51 8.07 -0.45 7.07 C-0.31 4.72 -0.16 2.36 0 0 Z " fill="#F1D598" transform="translate(541,583)"/>

<path d="M0 0 C0.99 0.99 1.98 1.98 3 3 C2.67 3.99 2.34 4.98 2 6 C2.01 7.48 2.05 8.96 2.12 10.44 C2.18 13.62 2.15 14.75 0.5 17.56 C0 18.04 -0.49 18.51 -1 19 C-2.94 18.38 -2.94 18.38 -5 17 C-6.31 12.41 -6.08 7.74 -6 3 C-4.02 2.01 -2.04 1.02 0 0 Z " fill="#0D264B" transform="translate(444,833)"/>
<path d="M0 0 C2.62 0.38 2.62 0.38 5 1 C5.34 2.6 5.67 4.21 6 5.81 C6.19 6.71 6.37 7.6 6.56 8.52 C7 11 7 11 7 14 C6.05 14.45 5.1 14.91 4.12 15.38 C1 16.8 1 16.8 -1 19 C-2.33 7.23 -2.33 7.23 -2 2 C-1.34 1.34 -0.68 0.68 0 0 Z " fill="#8E1A27" transform="translate(365,409)"/>

<path d="M0 0 C3.62 1.21 3.4 1.8 5 5 C5.99 5.33 6.98 5.66 8 6 C10.83 9.68 10.29 14.2 10.25 18.62 C10.26 19.4 10.27 20.18 10.27 20.98 C10.25 26.75 10.25 26.75 8 29 C6.05 24.92 5.78 21.68 5.88 17.19 C5.89 16.03 5.91 14.86 5.93 13.67 C5.95 12.79 5.98 11.91 6 11 C5.67 14.3 5.34 17.6 5 21 C4.34 20.67 3.68 20.34 3 20 C1.43 14.18 1.91 7.98 2 2 C1.01 1.67 0.02 1.34 -1 1 C-0.67 0.67 -0.34 0.34 0 0 Z " fill="#07162F" transform="translate(377,1066)"/>

<path d="M0 0 C2.33 2.33 2.54 3.51 3.19 6.69 C3.37 7.52 3.55 8.35 3.73 9.2 C4.06 12.63 3.53 15.59 3 19 C2.75 22.14 2.59 25.29 2.44 28.44 C2.39 29.26 2.35 30.09 2.31 30.94 C2.2 32.96 2.1 34.98 2 37 C-0.22 33.36 -0.64 29.59 -1.12 25.44 C-1.25 24.43 -1.25 24.43 -1.39 23.4 C-2.24 16.62 -2 9.83 -2 3 C-1.34 3 -0.68 3 0 3 C0 2.01 0 1.02 0 0 Z " fill="#091936" transform="translate(389,1108)"/>

<path d="M0 0 C0.33 0 0.66 0 1 0 C1.66 4.29 2.32 8.58 3 13 C3.33 10.36 3.66 7.72 4 5 C4.99 5 5.98 5 7 5 C7.03 8.48 7.05 11.96 7.06 15.44 C7.07 16.41 7.08 17.39 7.09 18.39 C7.11 24.35 6.78 30.09 6 36 C3.79 32.69 3.78 31.66 3.88 27.81 C3.89 26.91 3.91 26.01 3.93 25.08 C3.95 24.39 3.98 23.71 4 23 C3.01 22.67 2.02 22.34 1 22 C0.2 14.64 -0.13 7.4 0 0 Z " fill="#051024" transform="translate(371,1023)"/>
<path d="M0 0 C1.56 1.62 1.56 1.62 3 4 C2.69 7.25 2.69 7.25 2 10 C1.01 10 0.02 10 -1 10 C-0.68 10.58 -0.37 11.16 -0.04 11.76 C3.51 19.41 2.1 29.74 2 38 C1.34 38 0.68 38 0 38 C-0.08 36.97 -0.08 36.97 -0.17 35.92 C-0.42 32.82 -0.68 29.72 -0.94 26.62 C-1.02 25.54 -1.11 24.46 -1.2 23.35 C-1.29 22.32 -1.38 21.29 -1.46 20.23 C-1.54 19.27 -1.62 18.32 -1.7 17.34 C-1.87 14.98 -1.87 14.98 -3 13 C-3.99 12.67 -4.98 12.34 -6 12 C-5.51 7.62 -4.17 5.97 -1 3 C-0.67 2.01 -0.34 1.02 0 0 Z " fill="#DEDADB" transform="translate(372,397)"/>

<path d="M0 0 C0.33 0.66 0.66 1.32 1 2 C1.66 2 2.32 2 3 2 C3 11.57 3 21.14 3 31 C1.02 30.67 -0.96 30.34 -3 30 C-2.67 29.34 -2.34 28.68 -2 28 C-1.78 25.9 -1.61 23.79 -1.46 21.68 C-1.38 20.42 -1.29 19.17 -1.2 17.87 C-1.11 16.54 -1.03 15.21 -0.94 13.88 C-0.85 12.54 -0.75 11.2 -0.66 9.86 C-0.44 6.57 -0.22 3.29 0 0 Z " fill="#E8E7E7" transform="translate(612,1171)"/>

<path d="M0 0 C0.54 0.74 1.07 1.49 1.62 2.25 C4.16 5.19 6.74 6.92 10 9 C11.69 10.55 13.08 12.11 14.47 13.94 C18.39 19.02 21.44 21.02 27.77 22.23 C30.58 23.2 31.45 24.52 33 27 C21.21 25.21 10.84 17.63 3 9 C0.53 5.5 0 4.41 0 0 Z " fill="#EEC380" transform="translate(257,333)"/>

<path d="M0 0 C3.63 0 7.26 0 11 0 C12.03 5.13 11.6 7.19 10 12 C7.03 11.67 4.06 11.34 1 11 C1 9.68 1 8.36 1 7 C-0.65 6.67 -2.3 6.34 -4 6 C-4 5.67 -4 5.34 -4 5 C-1.36 4.67 1.28 4.34 4 4 C4 3.34 4 2.68 4 2 C2.35 2 0.7 2 -1 2 C-0.67 1.34 -0.34 0.68 0 0 Z " fill="#F5C477" transform="translate(455,158)"/>

<path d="M0 0 C1.42 0.14 2.83 0.29 4.25 0.44 C5.43 0.56 5.43 0.56 6.64 0.68 C13.21 1.56 19.15 3.94 25 7 C25 7.33 25 7.66 25 8 C23.72 8.14 22.44 8.29 21.12 8.44 C18.74 8.71 17.16 8.92 15 10 C14.34 9.34 13.68 8.68 13 8 C12.01 8.33 11.02 8.66 10 9 C9.34 8.34 8.68 7.68 8 7 C5.68 6.28 3.35 5.61 1 5 C0.67 3.35 0.34 1.7 0 0 Z " fill="#E8C281" transform="translate(69,805)"/>

<path d="M0 0 C1.94 0.81 1.94 0.81 4 2 C4.98 4.93 5.16 6.95 5.19 10 C5.2 10.87 5.22 11.73 5.23 12.62 C5 15 5 15 3 18 C1.68 17.67 0.36 17.34 -1 17 C-1.85 11.92 -2.26 7.15 -2 2 C-1.34 1.34 -0.68 0.68 0 0 Z " fill="#F6C477" transform="translate(198,162)"/>

<path d="M0 0 C-0.66 2.64 -1.32 5.28 -2 8 C-6.31 9.08 -10.87 10.06 -15 8 C-15 5.69 -15 5.69 -14 3 C-9.64 0.33 -5.06 -0.38 0 0 Z " fill="#0D264B" transform="translate(249,1139)"/>

<path d="M0 0 C1.89 0.12 1.89 0.12 3.81 0.24 C5.07 0.31 6.33 0.37 7.62 0.44 C10.81 1.12 10.81 1.12 12.25 3.17 C12.44 3.81 12.62 4.46 12.81 5.12 C9.4 7.39 7.85 7.47 3.81 7.55 C2.76 7.59 1.71 7.63 0.62 7.68 C-2.19 7.12 -2.19 7.12 -4.06 4.59 C-4.43 3.77 -4.81 2.96 -5.19 2.12 C-3.19 0.12 -3.19 0.12 0 0 Z " fill="#F6C477" transform="translate(309.1875,54.8828125)"/>

<path d="M0 0 C0.33 0 0.66 0 1 0 C1.05 8.57 1.08 17.14 1.1 25.71 C1.11 29.69 1.13 33.67 1.15 37.65 C1.17 41.49 1.18 45.33 1.19 49.17 C1.19 50.63 1.2 52.1 1.21 53.57 C1.23 55.62 1.23 57.66 1.23 59.71 C1.23 60.88 1.24 62.05 1.24 63.25 C1 66 1 66 -1 68 C-1.61 60.32 -2.13 52.71 -2 45 C-1.34 45 -0.68 45 0 45 C0 30.15 0 15.3 0 0 Z " fill="#0A0807" transform="translate(367,1174)"/>

<path d="M0 0 C0.33 0 0.66 0 1 0 C2.15 7.24 2.18 14.31 2.19 21.62 C2.2 22.93 2.21 24.24 2.22 25.59 C2.23 26.85 2.23 28.12 2.23 29.41 C2.23 30.56 2.24 31.7 2.24 32.88 C2 35.99 1.32 38.19 0 41 C-0.33 41 -0.66 41 -1 41 C-1 34 -1 27 -1 20 C-1.01 18.53 -1.02 17.06 -1.04 15.59 C-1.04 13.85 -1.05 12.11 -1.06 10.38 C-1.07 9.49 -1.08 8.61 -1.09 7.7 C-1.09 6.85 -1.09 6.01 -1.1 5.15 C-1.11 3.99 -1.11 3.99 -1.11 2.81 C-1 1 -1 1 0 0 Z " fill="#FBEBAE" transform="translate(567,736)"/>
<path d="M0 0 C0.67 0.13 1.35 0.25 2.04 0.38 C6.44 1.23 10.7 2.34 15 3.62 C14.67 5.27 14.34 6.93 14 8.62 C12.19 9.31 12.19 9.31 10 9.62 C7.51 7.78 7 6.62 6 3.62 C3.56 2.4 2.04 2.54 -0.68 2.6 C-1.61 2.61 -2.54 2.62 -3.49 2.63 C-5.45 2.67 -7.41 2.71 -9.37 2.75 C-10.76 2.77 -10.76 2.77 -12.18 2.79 C-13.46 2.81 -13.46 2.81 -14.76 2.84 C-17 2.62 -17 2.62 -20 0.62 C-13.4 -2.57 -6.96 -1.39 0 0 Z " fill="#E6E5E5" transform="translate(410,389.375)"/>

<path d="M0 0 C5.61 0.66 11.22 1.32 17 2 C17 2.66 17 3.32 17 4 C16.04 4.31 16.04 4.31 15.07 4.62 C14.24 4.89 13.41 5.16 12.56 5.44 C11.33 5.84 11.33 5.84 10.07 6.25 C8.04 6.82 8.04 6.82 7 8 C6.77 9.97 6.54 11.95 6.32 13.92 C5.93 16.47 5.09 18.67 4 21 C3.67 21 3.34 21 3 21 C3 14.4 3 7.8 3 1 C2.01 0.67 1.02 0.34 0 0 Z " fill="#F0CF93" transform="translate(85,461)"/>

<path d="M0 0 C0.66 0.33 1.32 0.66 2 1 C2.99 0.67 3.98 0.34 5 0 C5.05 1.75 5.09 3.5 5.12 5.25 C5.15 6.22 5.17 7.2 5.2 8.2 C5 11.02 4.45 12.61 3 15 C2.67 15 2.34 15 2 15 C1.34 18.3 0.68 21.6 0 25 C-0.33 25 -0.66 25 -1 25 C-1.03 22.15 -1.05 19.29 -1.06 16.44 C-1.07 15.64 -1.08 14.84 -1.09 14.01 C-1.11 9.23 -0.8 4.72 0 0 Z " fill="#F3D190" transform="translate(76,537)"/>
<path d="M0 0 C0.72 0.1 1.44 0.21 2.19 0.31 C3.31 2.06 3.31 2.06 4.19 4.31 C3.39 7.49 1.9 8.55 -0.62 10.69 C-3.81 12.31 -3.81 12.31 -6.69 11.56 C-7.39 11.15 -8.09 10.74 -8.81 10.31 C-8.51 6.79 -7.81 5.3 -5.56 2.5 C-2.81 0.31 -2.81 0.31 0 0 Z " fill="#615F5E" transform="translate(387.8125,419.6875)"/>

<path d="M0 0 C1.88 1.19 1.88 1.19 3 3 C3 5.5 3 5.5 2 8 C-0.31 9.88 -0.31 9.88 -3 11 C-5.31 10.69 -5.31 10.69 -7 10 C-8.33 3.57 -8.33 3.57 -6.88 1.06 C-4.36 -0.36 -2.84 -0.43 0 0 Z " fill="#0D264B" transform="translate(266,846)"/>
<path d="M0 0 C0 0.66 0 1.32 0 2 C1.32 2.33 2.64 2.66 4 3 C3.59 7.83 1.54 9.83 -2 13 C-4.76 10.24 -4.58 7.79 -5 4 C-5.74 3.88 -6.49 3.75 -7.25 3.62 C-9.8 3.05 -11.73 2.26 -14 1 C-9.24 0.05 -4.83 -0.08 0 0 Z " fill="#F6C376" transform="translate(280,36)"/>

<path d="M0 0 C0.99 0 1.98 0 3 0 C3 0.66 3 1.32 3 2 C3.66 2 4.32 2 5 2 C4.83 6.49 4.62 8.41 1.31 11.56 C-2 13 -2 13 -5.38 12.25 C-6.24 11.84 -7.11 11.43 -8 11 C-8 9.68 -8 8.36 -8 7 C-6.87 6.59 -5.73 6.18 -4.56 5.75 C-0.9 4.43 -0.9 4.43 -0.06 1.81 C-0.04 1.21 -0.02 0.62 0 0 Z " fill="#BD666C" transform="translate(433,444)"/>

<path d="M0 0 C2.97 0.49 2.97 0.49 6 1 C6.33 5.29 6.66 9.58 7 14 C12.61 14.33 18.22 14.66 24 15 C24 15.33 24 15.66 24 16 C17.07 16 10.14 16 3 16 C1.27 12.53 1.54 8.57 1.28 4.75 C1.17 2.04 1.17 2.04 0 0 Z " fill="#091E42" transform="translate(228,1184)"/>

<path d="M0 0 C2 2 2 2 2 5 C2.33 4.01 2.66 3.02 3 2 C3.99 2.33 4.98 2.66 6 3 C5.77 3.56 5.55 4.11 5.31 4.69 C4.73 7.11 4.73 7.11 6.44 9.25 C8.6 13.05 8.22 15.67 8 20 C7.67 20 7.34 20 7 20 C7 17.69 7 15.38 7 13 C6.67 14.65 6.34 16.3 6 18 C5.34 18 4.68 18 4 18 C3.67 17.34 3.34 16.68 3 16 C2.34 16.33 1.68 16.66 1 17 C1 14.03 1 11.06 1 8 C-0.65 7.67 -2.3 7.34 -4 7 C-4 6.34 -4 5.68 -4 5 C-3.01 4.67 -2.02 4.34 -1 4 C-0.27 1.98 -0.27 1.98 0 0 Z M4 3 C5 5 5 5 5 5 Z " fill="#213657" transform="translate(492,1075)"/>

<path d="M0 0 C3.56 0.19 3.56 0.19 5.56 2.19 C5.75 5.25 5.75 5.25 5.56 8.19 C4.56 9.19 4.56 9.19 1.19 9.5 C-2.44 9.19 -2.44 9.19 -4.44 7.44 C-5.44 5.19 -5.44 5.19 -5.19 3 C-3.88 -0.15 -3.74 0.2 0 0 Z " fill="#0D264B" transform="translate(283.4375,845.8125)"/>

<path d="M0 0 C0.33 0 0.66 0 1 0 C1 4.62 1 9.24 1 14 C0.34 14 -0.32 14 -1 14 C-1.66 18.95 -2.32 23.9 -3 29 C-6 26 -6 26 -6.19 23.06 C-6.13 22.05 -6.06 21.04 -6 20 C-6 18.68 -6 17.36 -6 16 C-5.01 13.66 -4 11.33 -3 9 C-2.6 7.01 -2.25 5.01 -2 3 C-1.34 3 -0.68 3 0 3 C0 2.01 0 1.02 0 0 Z " fill="#E8C080" transform="translate(159,738)"/>
<path d="M0 0 C-0.66 2.31 -1.32 4.62 -2 7 C-4.97 7 -7.94 7 -11 7 C-11.31 6.05 -11.62 5.1 -11.94 4.12 C-12.87 1.14 -12.87 1.14 -14 -1 C-4.59 -2.52 -4.59 -2.52 0 0 Z " fill="#BF1627" transform="translate(405,464)"/>
<path d="M0 0 C2 3 2 3 1.69 6.06 C1 9 1 9 0 11 C-2.31 11 -4.62 11 -7 11 C-7.66 9.35 -8.32 7.7 -9 6 C-3.15 0 -3.15 0 0 0 Z " fill="#686966" transform="translate(415,396)"/>

<path d="M0 0 C2.06 0.25 2.06 0.25 4 1 C5.32 3.64 5.1 5.68 5.06 8.62 C5.05 9.63 5.04 10.63 5.04 11.66 C5.02 12.43 5.01 13.21 5 14 C3.68 14.33 2.36 14.66 1 15 C-2.61 6.13 -2.61 6.13 -2 2 C-1.34 1.34 -0.68 0.68 0 0 Z " fill="#F6C477" transform="translate(533,676)"/>
<path d="M0 0 C1.32 0.33 2.64 0.66 4 1 C4.33 2.32 4.66 3.64 5 5 C4.34 5 3.68 5 3 5 C4.17 8.95 5.46 11.77 8 15 C8 15.66 8 16.32 8 17 C6.35 16.67 4.7 16.34 3 16 C2.67 15.01 2.34 14.02 2 13 C1.2 12.73 0.39 12.46 -0.44 12.19 C-3 11 -3 11 -4.31 7.88 C-4.54 6.93 -4.77 5.98 -5 5 C-2.52 5.99 -2.52 5.99 0 7 C0 4.69 0 2.38 0 0 Z " fill="#8B8C8D" transform="translate(381,404)"/>

<path d="M0 0 C0.66 0.66 1.32 1.32 2 2 C2.66 1.34 3.32 0.68 4 0 C5.83 3.35 6.04 4.81 5.31 8.62 C4.08 11.8 3.33 12.77 1 15 C0.28 17.61 0.28 17.61 0 20 C-0.66 20 -1.32 20 -2 20 C-2.05 17.42 -2.09 14.83 -2.12 12.25 C-2.14 11.52 -2.16 10.79 -2.18 10.04 C-2.21 6.2 -2.17 3.25 0 0 Z " fill="#F2CF8D" transform="translate(81,509)"/>
<path d="M0 0 C0.66 0 1.32 0 2 0 C2.66 0.7 3.32 1.4 4 2.12 C8.16 6.48 13.77 9.58 19.25 11.99 C21 13 21 13 22 16 C16.53 14.25 11.24 12.34 6 10 C6 9.34 6 8.68 6 8 C5.38 7.92 4.76 7.83 4.12 7.75 C2 7 2 7 0.75 5.12 C0 3 0 3 0 0 Z " fill="#F1EDEE" transform="translate(352,455)"/>

<path d="M0 0 C3.88 1.75 3.88 1.75 5 4 C5.46 10.25 5.46 10.25 3.5 13.44 C3 13.95 2.51 14.47 2 15 C1.01 14.67 0.02 14.34 -1 14 C-1.93 11.2 -2.16 9.35 -2.19 6.44 C-2.2 5.65 -2.22 4.87 -2.23 4.06 C-2 2 -2 2 0 0 Z " fill="#0D264B" transform="translate(472,1028)"/>

<path d="M0 0 C2.56 0.38 2.56 0.38 4.44 2 C5.93 5.14 5.39 7.07 4.56 10.38 C-2.19 9.62 -2.19 9.62 -4.44 7.38 C-4.69 4.88 -4.69 4.88 -4.44 2.38 C-2.44 0.38 -2.44 0.38 0 0 Z " fill="#9F4148" transform="translate(398.4375,413.625)"/>

<path d="M0 0 C1.18 0.08 2.35 0.16 3.56 0.25 C5.56 3.25 5.56 3.25 5.25 5.88 C4.56 8.25 4.56 8.25 3.56 9.25 C-1.97 9.49 -1.97 9.49 -4.44 8.25 C-4.48 5.92 -4.48 3.58 -4.44 1.25 C-3.44 0.25 -3.44 0.25 0 0 Z " fill="#0B2044" transform="translate(253.4375,1170.75)"/>

<path d="M0 0 C2 2 2 2 2.19 5.06 C2 8 2 8 1 9 C-5.17 8.54 -5.17 8.54 -8 6.69 C-9 5 -9 5 -8.88 2.88 C-8.44 1.95 -8.44 1.95 -8 1 C-5.03 0.01 -3.09 -0.24 0 0 Z " fill="#081D41" transform="translate(234,1171)"/>

<path d="M0 0 C1.88 2.06 1.88 2.06 3 4 C2.34 5.32 1.68 6.64 1 8 C-5.4 7.4 -5.4 7.4 -8 5.69 C-9 4 -9 4 -8.81 1.88 C-7.03 -2.23 -3.68 -0.98 0 0 Z " fill="#0D264B" transform="translate(309,1227)"/>

<path d="M0 0 C2.57 2.57 2.54 4.48 3 8 C0.23 9.39 -1.93 9.19 -5 9 C-5.99 8.34 -6.98 7.68 -8 7 C-7.62 4.06 -7.62 4.06 -7 1 C-4.49 -0.26 -2.78 -0.21 0 0 Z " fill="#091734" transform="translate(482,1171)"/>

<path d="M0 0 C5.55 0.64 11.01 1.5 16.5 2.56 C17.23 2.7 17.95 2.84 18.7 2.98 C20.47 3.32 22.23 3.66 24 4 C24 4.66 24 5.32 24 6 C19.83 6.07 15.88 6.04 11.75 5.44 C7.73 4.92 7.73 4.92 4 6 C3.67 6.66 3.34 7.32 3 8 C1.5 6.81 1.5 6.81 0 5 C-0.19 2.31 -0.19 2.31 0 0 Z " fill="#C7212F" transform="translate(92,416)"/>

<path d="M0 0 C2.81 2.81 2.77 5.11 3.11 8.98 C2.9 14.6 0.91 19.76 -1 25 C-1.99 24.67 -2.98 24.34 -4 24 C-3.52 20.94 -3.04 17.87 -2.56 14.81 C-2.43 13.95 -2.29 13.08 -2.15 12.19 C-1.51 8.11 -0.86 4.04 0 0 Z " fill="#F9F8ED" transform="translate(183,601)"/>

<path d="M0 0 C1.67 0.06 1.67 0.06 3.38 0.12 C3.38 1.12 3.38 2.11 3.38 3.12 C2.38 3.79 1.39 4.44 0.38 5.12 C-0.21 8.24 -0.21 8.24 -0.31 11.75 C-0.38 12.94 -0.44 14.13 -0.51 15.35 C-0.55 16.27 -0.59 17.18 -0.62 18.12 C-1.29 18.12 -1.94 18.12 -2.62 18.12 C-2.75 17.43 -2.87 16.73 -2.99 16.01 C-3.16 15.1 -3.33 14.19 -3.5 13.25 C-3.66 12.35 -3.82 11.44 -3.99 10.51 C-4.46 7.96 -4.46 7.96 -6.62 6.12 C-6.05 1.55 -4.71 0.16 0 0 Z " fill="#EBE7E8" transform="translate(436.625,401.875)"/>

<path d="M0 0 C1 1 1 1 1.12 4.5 C1 8 1 8 0 9 C-5.25 9.46 -5.25 9.46 -7.94 7.81 C-9 6 -9 6 -8.69 3.31 C-8.46 2.55 -8.23 1.79 -8 1 C-5.06 0.02 -3.06 -0.16 0 0 Z " fill="#0A1E42" transform="translate(505,1171)"/>

<path d="M0 0 C6.6 0 13.2 0 20 0 C20 10.12 20 10.12 17.5 14.56 C16.8 15.83 16.8 15.83 16.09 17.13 C15.73 17.75 15.37 18.36 15 19 C12 18 12 18 10 16 C10.78 15.61 11.57 15.22 12.38 14.81 C15.43 12.7 16.07 11.54 17 8 C17.17 5.29 17.17 5.29 17 3 C13.53 1.84 10.46 1.67 6.81 1.44 C5.54 1.35 4.27 1.27 2.96 1.18 C1.98 1.12 1.01 1.06 0 1 C0 0.67 0 0.34 0 0 Z " fill="#0C254B" transform="translate(593,1222)"/>

<path d="M0 0 C0.33 0 0.66 0 1 0 C2.33 5.65 1.77 10.86 1.19 16.56 C1.1 17.5 1.02 18.43 0.94 19.39 C0.5 23.9 0.06 27.89 -2 32 C-4 30 -4 30 -4.05 27.24 C-3.15 17.05 -3.15 17.05 -2 12.75 C-0.87 8.5 -0.38 4.37 0 0 Z " fill="#F0EDEE" transform="translate(362,413)"/>

<path d="M0 0 C1.62 -0.05 3.25 -0.09 4.88 -0.12 C6.23 -0.16 6.23 -0.16 7.62 -0.2 C10 0 10 0 12 2 C12.12 4.62 12.12 4.62 12 7 C12.66 7.33 13.32 7.66 14 8 C14 8.66 14 9.32 14 10 C10.61 9.39 8.7 8.09 6 6 C5.01 5.67 4.02 5.34 3 5 C3 4.34 3 3.68 3 3 C-0.96 3 -4.92 3 -9 3 C-9 2.67 -9 2.34 -9 2 C-4.54 1.5 -4.54 1.5 0 1 C0 0.67 0 0.34 0 0 Z " fill="#EEC686" transform="translate(254,148)"/>

<path d="M0 0 C0.33 0 0.66 0 1 0 C1.75 2.75 1.75 2.75 2 6 C0.5 8.38 0.5 8.38 -2 10 C-6.36 10.63 -8.27 10.5 -11.94 8 C-12.62 7.34 -13.3 6.68 -14 6 C-13.67 4.68 -13.34 3.36 -13 2 C-12.67 2.66 -12.34 3.32 -12 4 C-11.34 3.34 -10.68 2.68 -10 2 C-10 2.99 -10 3.98 -10 5 C-7.03 5.49 -7.03 5.49 -4 6 C-3.36 5.01 -2.72 4.02 -2.06 3 C-1.38 2.01 -0.7 1.02 0 0 Z " fill="#B7BBC1" transform="translate(281,1174)"/>

<path d="M0 0 C0.33 0.66 0.66 1.32 1 2 C2.86 2.36 2.86 2.36 5.06 2.44 C9.85 2.87 13.61 4.04 18 6 C18.33 6.66 18.66 7.32 19 8 C11.56 7.45 4.32 6.46 -3 5 C-3 4.01 -3 3.02 -3 2 C-2.01 2 -1.02 2 0 2 C0 1.34 0 0.68 0 0 Z " fill="#FCFCFC" transform="translate(91,433)"/>
<path d="M0 0 C2.64 0.66 5.28 1.32 8 2 C8 2.66 8 3.32 8 4 C8.99 4.33 9.98 4.66 11 5 C10.2 5.33 9.41 5.65 8.59 5.99 C1.94 8.71 1.94 8.71 -4.5 11.88 C-7 13 -7 13 -9.38 12.69 C-9.91 12.46 -10.45 12.23 -11 12 C-10.67 11.01 -10.34 10.02 -10 9 C-9.42 9.21 -8.85 9.41 -8.25 9.62 C-5.35 10.11 -4.38 9.69 -2 8 C-0.12 5.64 -0.12 5.64 1 3 C0.67 2.01 0.34 1.02 0 0 Z " fill="#9B9598" transform="translate(390,421)"/>

<path d="M0 0 C0.17 2.1 0.33 4.21 0.5 6.31 C0.59 7.48 0.69 8.66 0.78 9.86 C1.12 14.75 0.63 19.35 0 24.19 C-0.1 24.94 -0.19 25.69 -0.29 26.46 C-0.52 28.31 -0.76 30.15 -1 32 C-1.33 32 -1.66 32 -2 32 C-1.99 30.86 -1.98 29.71 -1.96 28.54 C-1.96 27.04 -1.95 25.55 -1.94 24.06 C-1.93 23.31 -1.92 22.55 -1.91 21.78 C-1.9 19.85 -1.95 17.92 -2 16 C-2.33 15.67 -2.66 15.34 -3 15 C-3.07 12.65 -3.08 10.29 -3.06 7.94 C-3.05 6.65 -3.04 5.36 -3.04 4.03 C-3.02 3.03 -3.01 2.03 -3 1 C-1 0 -1 0 0 0 Z " fill="#C39E64" transform="translate(566,743)"/>

<path d="M0 0 C2.64 0.33 5.28 0.66 8 1 C8.33 4.96 8.66 8.92 9 13 C12.3 13.99 15.6 14.98 19 16 C19 16.33 19 16.66 19 17 C14.71 17 10.42 17 6 17 C5.15 11.62 5 7.35 6 2 C4.02 2 2.04 2 0 2 C0 1.34 0 0.68 0 0 Z " fill="#0B1F43" transform="translate(473,1183)"/>

<path d="M0 0 C2.94 1.25 2.94 1.25 6 3 C6.88 5.19 6.88 5.19 7 7 C4.03 9.48 4.03 9.48 1 12 C-0.71 10.38 -2.37 8.71 -4 7 C-4 5 -4 5 -2.56 3.5 C-2.05 3 -1.53 2.51 -1 2 C-0.67 1.34 -0.34 0.68 0 0 Z " fill="#A21D2D" transform="translate(438,449)"/>

<path d="M0 0 C1.26 -0.04 2.52 -0.08 3.81 -0.12 C4.52 -0.15 5.23 -0.17 5.96 -0.2 C8 0 8 0 11 2 C11 1.34 11 0.68 11 0 C13.97 0.33 16.94 0.66 20 1 C20.5 2.49 20.5 2.49 21 4 C9.45 3.67 -2.1 3.34 -14 3 C-10.58 0.72 -9.32 0.78 -5.31 0.88 C-3.82 0.9 -3.82 0.9 -2.3 0.93 C-1.54 0.95 -0.78 0.98 0 1 C0 0.67 0 0.34 0 0 Z " fill="#EEC37E" transform="translate(387,129)"/>
<path d="M0 0 C2.6 2.47 4.78 5.19 7 8 C3.87 7.86 0.75 7.71 -2.38 7.56 C-3.26 7.52 -4.15 7.48 -5.07 7.44 C-5.92 7.4 -6.77 7.36 -7.65 7.32 C-8.43 7.28 -9.22 7.24 -10.03 7.21 C-12 7 -12 7 -14 6 C-13.62 4.06 -13.62 4.06 -13 2 C-12.34 1.67 -11.68 1.34 -11 1 C-11 1.66 -11 2.32 -11 3 C-9.68 3.33 -8.36 3.66 -7 4 C-7 4.66 -7 5.32 -7 6 C-3.63 4.61 -2.01 3.02 0 0 Z " fill="#D1D1D1" transform="translate(403,438)"/>

<path d="M0 0 C0.33 1.32 0.66 2.64 1 4 C1.99 4 2.98 4 4 4 C4.22 6.94 4.43 9.87 4.62 12.81 C4.69 13.65 4.75 14.48 4.82 15.34 C4.87 16.14 4.92 16.94 4.98 17.77 C5.03 18.51 5.08 19.25 5.14 20.01 C5 22 5 22 3 25 C2.67 18.73 2.34 12.46 2 6 C1.34 9.3 0.68 12.6 0 16 C-0.33 16 -0.66 16 -1 16 C-1.17 14.25 -1.34 12.5 -1.5 10.75 C-1.59 9.78 -1.69 8.8 -1.78 7.8 C-1.96 5.54 -2 3.27 -2 1 C-1.34 0.67 -0.68 0.34 0 0 Z " fill="#2B4062" transform="translate(499,1104)"/>

<path d="M0 0 C1.94 0.56 1.94 0.56 4 2 C4.14 3.11 4.29 4.23 4.44 5.38 C4.65 9.16 4.65 9.16 7.56 11.44 C8.37 11.95 9.17 12.47 10 13 C7 15 7 15 5 14.81 C2.6 13.84 1.53 13.11 0 11 C-1.04 7.01 -1.05 3.98 0 0 Z " fill="#D7D7D8" transform="translate(374,445)"/>
<path d="M0 0 C2.12 0.38 2.12 0.38 4 1 C4.34 2.62 4.67 4.25 5 5.88 C5.19 6.78 5.37 7.68 5.56 8.62 C6 11 6 11 6 13 C5.34 13 4.68 13 4 13 C3.67 12.34 3.34 11.68 3 11 C2.34 10.83 1.68 10.67 1 10.5 C0.34 10.33 -0.32 10.17 -1 10 C-2.38 7.24 -2.19 5.05 -2 2 C-1.34 1.34 -0.68 0.68 0 0 Z " fill="#8E1D29" transform="translate(429,409)"/>
<path d="M0 0 C1.26 -0.04 2.51 -0.07 3.8 -0.11 C7.12 0.31 7.12 0.31 9.07 2.33 C9.42 2.99 9.77 3.64 10.12 4.31 C4.42 5.31 -1.09 5.42 -6.88 5.31 C-7.44 3.38 -7.44 3.38 -7.88 1.31 C-5.94 -0.62 -2.57 0.05 0 0 Z M-2.88 2.31 C-2.22 2.97 -1.56 3.63 -0.88 4.31 C-0.88 3.65 -0.88 2.99 -0.88 2.31 C-1.53 2.31 -2.19 2.31 -2.88 2.31 Z " fill="#D3B17D" transform="translate(157.875,216.6875)"/>
































<path d="M0 0 C0.66 0 1.32 0 2 0 C1.34 4 0.12 7.51 -1.44 11.25 C-1.87 12.31 -2.3 13.36 -2.75 14.45 C-4 17 -4 17 -6 18 C-7.13 15.17 -6.99 13.98 -6.07 11.02 C-5.62 9.96 -5.16 8.9 -4.69 7.81 C-4.24 6.75 -3.79 5.68 -3.32 4.58 C-2 2 -2 2 0 1 C0 0.67 0 0.34 0 0 Z " fill="#4F5051" transform="translate(424,395)"/>
<path d="M0 0 C2.12 0.38 2.12 0.38 4 1 C3.74 3.02 3.48 5.04 3.22 7.05 C2.96 9 2.96 9 3 11 C-0.91 9.73 -2.79 8.49 -5 5 C-3.33 3.33 -1.67 1.67 0 0 Z " fill="#C7C9CA" transform="translate(392,412)"/>
<path d="M0 0 C0.99 0 1.98 0 3 0 C2.64 6.63 0.87 10.63 -3 16 C-3.99 15.67 -4.98 15.34 -6 15 C-5.53 14.28 -5.05 13.56 -4.56 12.81 C-3.03 10.05 -2.54 8.07 -2 5 C-1.37 3.32 -0.71 1.65 0 0 Z " fill="#F8F7E9" transform="translate(358,323)"/>
<path d="M0 0 C2.31 0.06 2.31 0.06 5 1 C6.81 4.56 6.81 4.56 8 8 C6.02 8.99 6.02 8.99 4 10 C3.67 9.01 3.34 8.02 3 7 C2.01 6.67 1.02 6.34 0 6 C0 4.02 0 2.04 0 0 Z " fill="#494A4C" transform="translate(382,398)"/>
<path d="M0 0 C0.99 0.33 1.98 0.66 3 1 C2.55 2.58 2.09 4.17 1.62 5.75 C1.37 6.63 1.11 7.51 0.85 8.42 C0.08 10.76 -0.84 12.83 -2 15 C-2.33 14.34 -2.66 13.68 -3 13 C-2.67 12.34 -2.34 11.68 -2 11 C-3.98 11 -5.96 11 -8 11 C-5 9 -5 9 -3 9 C-2.01 6.03 -1.02 3.06 0 0 Z " fill="#9CA5B0" transform="translate(418,398)"/>
<path d="M0 0 C1.5 1.06 1.5 1.06 3 3 C3.19 6.69 3.19 6.69 3 10 C1.35 10 -0.3 10 -2 10 C-2.69 7.25 -2.69 7.25 -3 4 C-1.56 1.62 -1.56 1.62 0 0 Z " fill="#3F3E41" transform="translate(399,396)"/>
<path d="M0 0 C0.33 0 0.66 0 1 0 C2.24 6.66 2.09 13.25 2 20 C-0.25 17.95 -1 16.99 -2 14 C-1.76 11.6 -1.43 9.2 -1.06 6.81 C-0.87 5.54 -0.67 4.27 -0.47 2.96 C-0.32 1.98 -0.16 1.01 0 0 Z " fill="#06132A" transform="translate(500,1110)"/>
<path d="M0 0 C5.2 1.36 8.1 3.47 12 7 C11.34 8.32 10.68 9.64 10 11 C8.33 9.36 6.66 7.71 5 6.06 C4.07 5.15 3.14 4.23 2.19 3.29 C0 1 0 1 0 0 Z " fill="#354057" transform="translate(139,813)"/>
<path d="M0 0 C0.66 0 1.32 0 2 0 C2.98 4.1 3.17 7.98 3.19 12.19 C3.2 13.42 3.22 14.65 3.23 15.92 C3 19 3 19 1 21 C0.67 14.07 0.34 7.14 0 0 Z " fill="#FBE8A9" transform="translate(536,562)"/>
<path d="M0 0 C1.65 0.33 3.3 0.66 5 1 C6.21 4.62 5.54 5.64 4 9 C1.44 6.75 1.44 6.75 -1 4 C-0.81 1.69 -0.81 1.69 0 0 Z " fill="#FAC271" transform="translate(215,142)"/>
<path d="M0 0 C4.56 0.56 4.56 0.56 6 2 C6.09 3.56 6.11 5.13 6.1 6.69 C6.09 7.64 6.09 8.58 6.09 9.55 C6.08 10.55 6.07 11.54 6.06 12.56 C6.06 13.56 6.05 14.56 6.05 15.58 C6.04 18.06 6.02 20.53 6 23 C5.01 23.33 4.02 23.66 3 24 C3 23.34 3 22.68 3 22 C3.66 22 4.32 22 5 22 C5 16.06 5 10.12 5 4 C2.69 3.34 0.38 2.68 -2 2 C-1.34 1.34 -0.68 0.68 0 0 Z " fill="#EBE9EA" transform="translate(526,1219)"/>
<path d="M0 0 C-2.82 2.93 -5.65 5.68 -9 8 C-9.99 7.67 -10.98 7.34 -12 7 C-11.21 5.85 -10.42 4.71 -9.62 3.56 C-9.18 2.92 -8.74 2.29 -8.29 1.63 C-5.7 -1.64 -3.75 -0.89 0 0 Z " fill="#F1EDEE" transform="translate(566,1162)"/>
<path d="M0 0 C0.33 0 0.66 0 1 0 C1.33 4.95 1.66 9.9 2 15 C0.68 15 -0.64 15 -2 15 C-1.86 12.69 -1.71 10.37 -1.56 8.06 C-1.48 6.77 -1.4 5.49 -1.32 4.16 C-1 1 -1 1 0 0 Z " fill="#F8F5E9" transform="translate(476,736)"/>
<path d="M0 0 C0.33 0 0.66 0 1 0 C1.75 7.03 2.14 13.93 2 21 C1.01 20.34 0.02 19.68 -1 19 C-1.19 15.38 -1.19 15.38 -1 12 C-1.66 11.67 -2.32 11.34 -3 11 C-2.34 10.67 -1.68 10.34 -1 10 C-0.53 7.64 -0.53 7.64 -0.38 4.94 C-0.3 4.02 -0.23 3.1 -0.15 2.15 C-0.1 1.44 -0.05 0.73 0 0 Z " fill="#A18254" transform="translate(56,647)"/>
<path d="M0 0 C2.62 0.38 2.62 0.38 5 1 C4.67 2.65 4.34 4.3 4 6 C2.35 6.33 0.7 6.66 -1 7 C-1.62 4.62 -1.62 4.62 -2 2 C-1.34 1.34 -0.68 0.68 0 0 Z " fill="#F6C477" transform="translate(531,625)"/>
<path d="M0 0 C0.33 0 0.66 0 1 0 C1.19 2.79 1.38 5.58 1.56 8.38 C1.62 9.17 1.67 9.96 1.73 10.78 C2.11 16.77 2.11 16.77 1 19 C-0.32 18.67 -1.64 18.34 -3 18 C-2.34 18 -1.68 18 -1 18 C-1 16.02 -1 14.04 -1 12 C-1.99 11.67 -2.98 11.34 -4 11 C-3.01 11 -2.02 11 -1 11 C-0.67 7.37 -0.34 3.74 0 0 Z " fill="#9F8256" transform="translate(78,518)"/>
<path d="M0 0 C3.3 0 6.6 0 10 0 C10.33 1.65 10.66 3.3 11 5 C9.74 4.88 8.48 4.75 7.19 4.62 C6.13 4.52 6.13 4.52 5.04 4.41 C3 4 3 4 0 2 C0 1.34 0 0.68 0 0 Z " fill="#CACBCC" transform="translate(408,434)"/>
<path d="M0 0 C2.62 0.38 2.62 0.38 5 1 C5 1.66 5 2.32 5 3 C4.34 3 3.68 3 3 3 C2.34 4.98 1.68 6.96 1 9 C0.01 9 -0.98 9 -2 9 C-2.12 5.62 -2.12 5.62 -2 2 C-1.34 1.34 -0.68 0.68 0 0 Z " fill="#A84A51" transform="translate(365,409)"/>
<path d="M0 0 C1.32 0.66 2.64 1.32 4 2 C4 3.98 4 5.96 4 8 C3.34 8 2.68 8 2 8 C2.33 9.65 2.66 11.3 3 13 C2.34 13 1.68 13 1 13 C0.44 11.4 -0.1 9.8 -0.62 8.19 C-0.93 7.29 -1.23 6.4 -1.54 5.48 C-2 3 -2 3 0 0 Z " fill="#D8B681" transform="translate(447,134)"/>
<path d="M0 0 C11.55 0 23.1 0 35 0 C34.67 0.99 34.34 1.98 34 3 C33.01 2.67 32.02 2.34 31 2 C28.64 1.85 26.29 1.75 23.93 1.68 C23.24 1.66 22.56 1.64 21.85 1.62 C19.67 1.56 17.49 1.5 15.31 1.44 C13.83 1.39 12.35 1.35 10.87 1.31 C7.25 1.2 3.62 1.1 0 1 C0 0.67 0 0.34 0 0 Z " fill="#705F74" transform="translate(530,1157)"/>
<path d="M0 0 C1.05 2.72 1.05 3.85 0.06 6.66 C-1.13 10.41 -1.44 13.97 -1.62 17.88 C-1.66 18.56 -1.7 19.25 -1.74 19.96 C-1.84 21.64 -1.92 23.32 -2 25 C-2.33 25 -2.66 25 -3 25 C-3 17.41 -3 9.82 -3 2 C-2.01 2 -1.02 2 0 2 C0 1.34 0 0.68 0 0 Z " fill="#354968" transform="translate(368,966)"/>
<path d="M0 0 C1.18 2.36 1.04 3.53 0.88 6.13 C0.83 6.94 0.78 7.74 0.73 8.57 C0.65 9.84 0.65 9.84 0.56 11.12 C0.51 11.97 0.46 12.82 0.4 13.7 C0.27 15.8 0.14 17.9 0 20 C-2.72 17.28 -2.46 15.42 -2.75 11.62 C-2.85 10.48 -2.95 9.34 -3.05 8.16 C-3 4.7 -2.47 2.47 0 0 Z " fill="#FCE9A9" transform="translate(42,746)"/>
<path d="M0 0 C2.57 3.84 2.23 7.81 2.12 12.25 C2.12 13 2.11 13.74 2.1 14.51 C2.07 16.34 2.04 18.17 2 20 C1.34 20.33 0.68 20.66 0 21 C-0.99 16.27 -0.97 11.91 -0.56 7.12 C-0.51 6.44 -0.46 5.75 -0.4 5.04 C-0.28 3.36 -0.14 1.68 0 0 Z " fill="#F8E6AC" transform="translate(558,686)"/>
<path d="M0 0 C1.88 1.25 1.88 1.25 2.88 4.25 C0.89 5.24 -1.08 6.23 -3.12 7.25 C-4.69 4.88 -4.69 4.88 -6.12 2.25 C-4.65 -0.7 -3.05 -1.08 0 0 Z " fill="#CECFCF" transform="translate(408.125,414.75)"/>
<path d="M0 0 C1.65 0.48 3.29 0.96 4.94 1.44 C6.31 1.84 6.31 1.84 7.71 2.25 C10 3 10 3 11 4 C11.04 5.67 11.04 7.33 11 9 C10.67 8.34 10.34 7.68 10 7 C8.1 6.53 8.1 6.53 5.94 6.38 C4.64 6.25 3.34 6.13 2 6 C1.34 4.02 0.68 2.04 0 0 Z " fill="#091E42" transform="translate(531,1172)"/>
<path d="M0 0 C0.66 0 1.32 0 2 0 C3.61 6.57 2.03 11.65 0 18 C-0.33 18 -0.66 18 -1 18 C-1.18 5.33 -1.18 5.33 0 0 Z " fill="#F9F5E6" transform="translate(166,702)"/>
<path d="M0 0 C2.94 1.31 2.94 1.31 6 3 C6.33 3.99 6.66 4.98 7 6 C5.19 7.56 5.19 7.56 3 9 C2.01 8.67 1.02 8.34 0 8 C0 5.36 0 2.72 0 0 Z " fill="#A21627" transform="translate(422,461)"/>
<path d="M0 0 C0.99 0 1.98 0 3 0 C5.24 3.35 5.17 3.91 4.62 7.69 C4.51 8.5 4.4 9.3 4.29 10.14 C4.19 10.75 4.1 11.37 4 12 C2.35 12.33 0.7 12.66 -1 13 C-0.34 12.01 0.32 11.02 1 10 C1.24 7.94 1.24 7.94 1.12 5.81 C1.08 4.55 1.04 3.3 1 2 C0.34 1.67 -0.32 1.34 -1 1 C-0.67 0.67 -0.34 0.34 0 0 Z " fill="#C01A2A" transform="translate(211,436)"/>
<path d="M0 0 C1.95 0.2 3.89 0.41 5.82 0.71 C8.91 1.12 11.89 1.06 15 1 C15 1.66 15 2.32 15 3 C8.99 4.46 3.66 4.74 -2 2 C-1.34 1.34 -0.68 0.68 0 0 Z " fill="#9CA3AB" transform="translate(387,390)"/>
<path d="M0 0 C1.56 1.56 1.56 1.56 3 4 C2.67 10.33 2.67 10.33 0 13 C-0.99 12.67 -1.98 12.34 -3 12 C-2.01 11.67 -1.02 11.34 0 11 C-0.33 10.34 -0.66 9.68 -1 9 C-1.19 6.31 -1.09 3.7 -1 1 C-0.67 0.67 -0.34 0.34 0 0 Z " fill="#CFD0D1" transform="translate(529,1170)"/>
<path d="M0 0 C2.38 0.69 2.38 0.69 5 2 C6.31 4.62 6.31 4.62 7 7 C4.52 8.49 4.52 8.49 2 10 C1.34 6.7 0.68 3.4 0 0 Z " fill="#CFCFCF" transform="translate(378,415)"/>
</svg>