<?xml version="1.0" encoding="UTF-8"?>
<!DOCTYPE svg PUBLIC "-//W3C//DTD SVG 1.1//EN" "http://www.w3.org/Graphics/SVG/1.1/DTD/svg11.dtd">
<svg xmlns="http://www.w3.org/2000/svg" version="1.1" width="156px" height="296px" style="shape-rendering:geometricPrecision; text-rendering:geometricPrecision; image-rendering:optimizeQuality; fill-rule:evenodd; clip-rule:evenodd" xmlns:xlink="http://www.w3.org/1999/xlink">
<g><path style="opacity:1" fill="#f6be70" d="M 85.5,71.5 C 84.5,71.8333 83.8333,72.5 83.5,73.5C 78.8327,82.8434 71.8327,85.3434 62.5,81C 60.2028,78.9013 58.5361,76.4013 57.5,73.5C 57.6716,72.5084 57.3382,71.8417 56.5,71.5C 47.3096,67.6458 41.3096,60.9792 38.5,51.5C 29.368,51.2102 26.5346,46.8769 30,38.5C 31.7342,36.5494 33.9009,35.5494 36.5,35.5C 42.3738,13.5461 56.7071,4.04611 79.5,7C 94.0843,11.0806 102.418,20.5806 104.5,35.5C 113.854,36.3672 116.354,41.0338 112,49.5C 109.443,51.3142 106.776,51.6475 104,50.5C 101.151,60.5105 94.9843,67.5105 85.5,71.5 Z"/></g>
<g><path style="opacity:1" fill="#060201" d="M 61.5,33.5 C 58.1667,33.5 54.8333,33.5 51.5,33.5C 51.5,32.5 51.5,31.5 51.5,30.5C 54.8333,30.5 58.1667,30.5 61.5,30.5C 61.5,31.5 61.5,32.5 61.5,33.5 Z"/></g>
<g><path style="opacity:1" fill="#070201" d="M 84.5,30.5 C 87.8333,30.5 91.1667,30.5 94.5,30.5C 94.5,31.5 94.5,32.5 94.5,33.5C 91.1667,33.5 87.8333,33.5 84.5,33.5C 84.5,32.5 84.5,31.5 84.5,30.5 Z"/></g>
<g><path style="opacity:1" fill="#9b7e52" d="M 51.5,33.5 C 54.8333,33.5 58.1667,33.5 61.5,33.5C 61.1667,34.1667 60.8333,34.8333 60.5,35.5C 58.8333,35.5 57.1667,35.5 55.5,35.5C 54.1667,34.8333 52.8333,34.1667 51.5,33.5 Z"/></g>
<g><path style="opacity:1" fill="#140e08" d="M 55.5,35.5 C 57.1667,35.5 58.8333,35.5 60.5,35.5C 63.0866,43.0857 60.92,45.0857 54,41.5C 53.0589,39.0106 53.5589,37.0106 55.5,35.5 Z"/></g>
<g><path style="opacity:1" fill="#150e09" d="M 87.5,35.5 C 93.8895,34.218 95.8895,36.5514 93.5,42.5C 87.3197,43.9802 85.3197,41.6468 87.5,35.5 Z"/></g>
<g><path style="opacity:0.051" fill="#9a9896" d="M 56.5,71.5 C 57.3382,71.8417 57.6716,72.5084 57.5,73.5C 50.9779,73.8235 44.6446,73.4902 38.5,72.5C 44.69,72.8229 50.69,72.4896 56.5,71.5 Z"/></g>
<g><path style="opacity:0.051" fill="#9d9b9b" d="M 85.5,71.5 C 89.8333,72.1667 94.1667,72.8333 98.5,73.5C 93.5,73.5 88.5,73.5 83.5,73.5C 83.8333,72.5 84.5,71.8333 85.5,71.5 Z"/></g>
<g><path style="opacity:1" fill="#fcfcfb" d="M 38.5,72.5 C 44.6446,73.4902 50.9779,73.8235 57.5,73.5C 58.5361,76.4013 60.2028,78.9013 62.5,81C 71.8327,85.3434 78.8327,82.8434 83.5,73.5C 88.5,73.5 93.5,73.5 98.5,73.5C 104.258,73.9236 107.925,76.9236 109.5,82.5C 109.177,88.69 109.51,94.69 110.5,100.5C 113.764,99.6758 117.098,99.3424 120.5,99.5C 120.5,99.8333 120.5,100.167 120.5,100.5C 117.14,100.616 113.807,100.949 110.5,101.5C 110.5,102.5 110.5,103.5 110.5,104.5C 114.291,104.341 117.958,103.675 121.5,102.5C 121.784,104.415 121.451,106.081 120.5,107.5C 117.14,107.616 113.807,107.949 110.5,108.5C 110.5,130.167 110.5,151.833 110.5,173.5C 85.8333,173.5 61.1667,173.5 36.5,173.5C 39.5405,152.433 42.8738,131.433 46.5,110.5C 37.482,109.248 28.482,107.915 19.5,106.5C 18.596,105.791 18.2627,104.791 18.5,103.5C 28.4181,105.597 38.4181,107.264 48.5,108.5C 48.5,107.5 48.5,106.5 48.5,105.5C 38.8382,104.084 29.1715,102.751 19.5,101.5C 19.2322,99.901 19.5655,98.5676 20.5,97.5C 20.9704,98.6935 21.9704,99.3601 23.5,99.5C 32.1503,100.998 40.8169,102.331 49.5,103.5C 49.5,102.5 49.5,101.5 49.5,100.5C 39.8332,99.1666 30.1666,97.8333 20.5,96.5C 20.4432,91.9864 22.1098,88.3197 25.5,85.5C 26.9577,78.2745 31.291,73.9412 38.5,72.5 Z"/></g>
<g><path style="opacity:0.996" fill="#cdcbcc" d="M 109.5,82.5 C 115.851,84.517 119.184,88.8503 119.5,95.5C 116.727,96.6572 113.727,97.3239 110.5,97.5C 110.5,98.5 110.5,99.5 110.5,100.5C 109.51,94.69 109.177,88.69 109.5,82.5 Z"/></g>
<g><path style="opacity:1" fill="#cd222a" d="M 119.5,95.5 C 120.434,96.5676 120.768,97.901 120.5,99.5C 117.098,99.3424 113.764,99.6758 110.5,100.5C 110.5,99.5 110.5,98.5 110.5,97.5C 113.727,97.3239 116.727,96.6572 119.5,95.5 Z"/></g>
<g><path style="opacity:1" fill="#c8bfbe" d="M 87.5,90.5 C 86.0598,95.3982 87.3932,96.3982 91.5,93.5C 92.938,93.7189 94.2713,94.2189 95.5,95C 94.3508,96.7441 93.0175,96.9108 91.5,95.5C 90.2813,96.6461 88.9479,97.6461 87.5,98.5C 87.9202,100.326 87.9202,102.326 87.5,104.5C 90.4578,105.541 93.4578,105.541 96.5,104.5C 96.7035,102.61 96.0368,101.11 94.5,100C 96.5689,99.6758 96.9023,98.8425 95.5,97.5C 96.7472,95.677 97.4139,93.677 97.5,91.5C 97.4346,91.0618 97.6012,90.7284 98,90.5C 98.7724,91.8491 99.9391,92.6824 101.5,93C 100.944,93.3826 100.611,93.8826 100.5,94.5C 99.2502,94.5774 98.4169,95.244 98,96.5C 97.7482,99.6669 97.5815,102.667 97.5,105.5C 93.8333,106.833 90.1667,106.833 86.5,105.5C 86.2273,101.405 85.2273,97.7383 83.5,94.5C 84.5812,92.8664 85.9145,91.533 87.5,90.5 Z"/></g>
<g><path style="opacity:1" fill="#726e6b" d="M 87.5,90.5 C 90.9387,90.2529 94.272,90.5863 97.5,91.5C 97.4139,93.677 96.7472,95.677 95.5,97.5C 96.9023,98.8425 96.5689,99.6758 94.5,100C 96.0368,101.11 96.7035,102.61 96.5,104.5C 93.4578,105.541 90.4578,105.541 87.5,104.5C 87.9202,102.326 87.9202,100.326 87.5,98.5C 88.9479,97.6461 90.2813,96.6461 91.5,95.5C 93.0175,96.9108 94.3508,96.7441 95.5,95C 94.2713,94.2189 92.938,93.7189 91.5,93.5C 87.3932,96.3982 86.0598,95.3982 87.5,90.5 Z"/></g>
<g><path style="opacity:1" fill="#da2e32" d="M 20.5,96.5 C 30.1666,97.8333 39.8332,99.1666 49.5,100.5C 49.5,101.5 49.5,102.5 49.5,103.5C 40.8169,102.331 32.1503,100.998 23.5,99.5C 21.9704,99.3601 20.9704,98.6935 20.5,97.5C 20.5,97.1667 20.5,96.8333 20.5,96.5 Z"/></g>
<g><path style="opacity:1" fill="#278a44" d="M 120.5,100.5 C 120.833,101.167 121.167,101.833 121.5,102.5C 117.958,103.675 114.291,104.341 110.5,104.5C 110.5,103.5 110.5,102.5 110.5,101.5C 113.807,100.949 117.14,100.616 120.5,100.5 Z"/></g>
<g><path style="opacity:1" fill="#a9494b" d="M 83.5,94.5 C 85.2273,97.7383 86.2273,101.405 86.5,105.5C 90.1667,106.833 93.8333,106.833 97.5,105.5C 97.5815,102.667 97.7482,99.6669 98,96.5C 98.4169,95.244 99.2502,94.5774 100.5,94.5C 100.362,98.4058 100.862,102.072 102,105.5C 99.173,107.961 95.8396,108.961 92,108.5C 88.1604,108.961 84.827,107.961 82,105.5C 83.1382,102.072 83.6382,98.4058 83.5,94.5 Z"/></g>
<g><path style="opacity:1" fill="#2a8b45" d="M 19.5,101.5 C 29.1715,102.751 38.8382,104.084 48.5,105.5C 48.5,106.5 48.5,107.5 48.5,108.5C 38.4181,107.264 28.4181,105.597 18.5,103.5C 18.8333,102.833 19.1667,102.167 19.5,101.5 Z"/></g>
<g><path style="opacity:1" fill="#fbc374" d="M 19.5,106.5 C 28.482,107.915 37.482,109.248 46.5,110.5C 42.8738,131.433 39.5405,152.433 36.5,173.5C 35.4713,178.587 33.4713,183.254 30.5,187.5C 15.6039,191.401 8.27062,185.734 8.5,170.5C 9.93112,170.119 10.7645,169.119 11,167.5C 13.3081,154.891 15.1414,142.224 16.5,129.5C 17.1098,121.784 18.1098,114.117 19.5,106.5 Z"/></g>
<g><path style="opacity:1" fill="#f8c274" d="M 120.5,107.5 C 124.446,130.007 128.446,152.507 132.5,175C 128.717,188.313 120.717,191.813 108.5,185.5C 109.793,181.616 110.459,177.616 110.5,173.5C 110.5,151.833 110.5,130.167 110.5,108.5C 113.807,107.949 117.14,107.616 120.5,107.5 Z"/></g>
<g><path style="opacity:0.949" fill="#d8b482" d="M 16.5,129.5 C 15.1414,142.224 13.3081,154.891 11,167.5C 10.7645,169.119 9.93112,170.119 8.5,170.5C 10.8557,156.685 13.5224,143.018 16.5,129.5 Z"/></g>
<g><path style="opacity:1" fill="#11264f" d="M 36.5,173.5 C 61.1667,173.5 85.8333,173.5 110.5,173.5C 110.459,177.616 109.793,181.616 108.5,185.5C 106.667,187.022 105.667,189.022 105.5,191.5C 109.161,212.463 112.494,233.463 115.5,254.5C 115.467,258.869 115.8,263.202 116.5,267.5C 112.414,268.154 109.081,266.988 106.5,264C 104.801,263.042 102.967,262.542 101,262.5C 98.4901,263.575 95.9901,264.575 93.5,265.5C 92.9492,268.807 92.6159,272.14 92.5,275.5C 91.1127,273.123 90.2794,270.457 90,267.5C 86.4628,245.481 82.7962,223.481 79,201.5C 73.3776,201.411 67.5443,201.411 61.5,201.5C 61.5,223.167 61.5,244.833 61.5,266.5C 64.5,266.5 67.5,266.5 70.5,266.5C 70.5,267.167 70.1667,267.5 69.5,267.5C 63.4908,267.666 57.4908,267.499 51.5,267C 43.1322,260.176 37.4655,262.01 34.5,272.5C 34.6666,245.165 34.5,217.831 34,190.5C 32.6412,189.635 31.4745,188.635 30.5,187.5C 33.4713,183.254 35.4713,178.587 36.5,173.5 Z"/></g>
<g><path style="opacity:1" fill="#121731" d="M 69.5,267.5 C 67.819,270.582 67.1524,273.915 67.5,277.5C 56.5,277.5 45.5,277.5 34.5,277.5C 34.5,275.833 34.5,274.167 34.5,272.5C 37.4655,262.01 43.1322,260.176 51.5,267C 57.4908,267.499 63.4908,267.666 69.5,267.5 Z"/></g>
<g><path style="opacity:1" fill="#0c1831" d="M 115.5,254.5 C 116.653,258.202 117.653,262.035 118.5,266C 121.817,266.498 125.15,266.665 128.5,266.5C 127.5,267.833 126.5,269.167 125.5,270.5C 124.539,272.265 124.205,274.265 124.5,276.5C 122.167,276.5 119.833,276.5 117.5,276.5C 118.344,274.241 120.011,273.241 122.5,273.5C 122.5,272.167 122.5,270.833 122.5,269.5C 120.784,269.629 119.117,269.962 117.5,270.5C 116.5,269.167 115.5,269.167 114.5,270.5C 113.033,273.258 112.367,272.925 112.5,269.5C 111.167,269.5 109.833,269.5 108.5,269.5C 108.884,271.929 109.551,274.263 110.5,276.5C 104.5,276.5 98.5,276.5 92.5,276.5C 92.5,276.167 92.5,275.833 92.5,275.5C 92.6159,272.14 92.9492,268.807 93.5,265.5C 95.9901,264.575 98.4901,263.575 101,262.5C 102.967,262.542 104.801,263.042 106.5,264C 109.081,266.988 112.414,268.154 116.5,267.5C 115.8,263.202 115.467,258.869 115.5,254.5 Z"/></g>
<g><path style="opacity:1" fill="#f8f0f1" d="M 73.5,266.5 C 82.1667,265.167 85.8333,268.833 84.5,277.5C 79.5,277.5 74.5,277.5 69.5,277.5C 68.6561,272.862 69.9894,269.195 73.5,266.5 Z"/></g>
<g><path style="opacity:1" fill="#f6f0f1" d="M 130.5,266.5 C 139.626,264.715 143.626,268.381 142.5,277.5C 142.167,277.5 141.833,277.5 141.5,277.5C 136.5,277.5 131.5,277.5 126.5,277.5C 125.658,272.949 126.992,269.283 130.5,266.5 Z"/></g>
<g><path style="opacity:1" fill="#717c92" d="M 51.5,269.5 C 54.1662,269.066 55.3329,270.066 55,272.5C 51.4034,274.066 50.2368,273.066 51.5,269.5 Z"/></g>
<g><path style="opacity:1" fill="#6d7b93" d="M 56.5,269.5 C 59.1623,270.639 61.829,270.806 64.5,270C 65.3366,271.011 65.67,272.178 65.5,273.5C 62.4578,272.459 59.4578,272.459 56.5,273.5C 56.5,272.167 56.5,270.833 56.5,269.5 Z"/></g>
<g><path style="opacity:1" fill="#404c6d" d="M 114.5,270.5 C 117.113,271.095 117.113,271.929 114.5,273C 115.448,273.483 116.448,273.649 117.5,273.5C 117.5,272.5 117.5,271.5 117.5,270.5C 119.117,269.962 120.784,269.629 122.5,269.5C 122.5,270.833 122.5,272.167 122.5,273.5C 120.011,273.241 118.344,274.241 117.5,276.5C 115.167,276.5 112.833,276.5 110.5,276.5C 109.551,274.263 108.884,271.929 108.5,269.5C 109.833,269.5 111.167,269.5 112.5,269.5C 112.367,272.925 113.033,273.258 114.5,270.5 Z"/></g>
<g><path style="opacity:1" fill="#929eb3" d="M 114.5,270.5 C 115.5,269.167 116.5,269.167 117.5,270.5C 117.5,271.5 117.5,272.5 117.5,273.5C 116.448,273.649 115.448,273.483 114.5,273C 117.113,271.929 117.113,271.095 114.5,270.5 Z"/></g>
<g><path style="opacity:1" fill="#ab2236" d="M 70.5,266.5 C 71.5,266.5 72.5,266.5 73.5,266.5C 69.9894,269.195 68.6561,272.862 69.5,277.5C 68.8333,277.5 68.1667,277.5 67.5,277.5C 67.1524,273.915 67.819,270.582 69.5,267.5C 70.1667,267.5 70.5,267.167 70.5,266.5 Z"/></g>
<g><path style="opacity:1" fill="#431434" d="M 125.5,270.5 C 125.5,272.833 125.5,275.167 125.5,277.5C 114.5,277.5 103.5,277.5 92.5,277.5C 92.5,277.167 92.5,276.833 92.5,276.5C 98.5,276.5 104.5,276.5 110.5,276.5C 112.833,276.5 115.167,276.5 117.5,276.5C 119.833,276.5 122.167,276.5 124.5,276.5C 124.205,274.265 124.539,272.265 125.5,270.5 Z"/></g>
<g><path style="opacity:1" fill="#d31121" d="M 34.5,277.5 C 45.5,277.5 56.5,277.5 67.5,277.5C 68.1667,277.5 68.8333,277.5 69.5,277.5C 74.5,277.5 79.5,277.5 84.5,277.5C 84.5,278.833 84.5,280.167 84.5,281.5C 78.1667,281.5 71.8333,281.5 65.5,281.5C 55.1667,281.5 44.8333,281.5 34.5,281.5C 34.5,280.167 34.5,278.833 34.5,277.5 Z"/></g>
<g><path style="opacity:1" fill="#d40f1f" d="M 128.5,266.5 C 129.167,266.5 129.833,266.5 130.5,266.5C 126.992,269.283 125.658,272.949 126.5,277.5C 131.5,277.5 136.5,277.5 141.5,277.5C 141.5,278.5 141.5,279.5 141.5,280.5C 125.497,280.667 109.497,280.5 93.5,280C 92.7476,279.329 92.4142,278.496 92.5,277.5C 103.5,277.5 114.5,277.5 125.5,277.5C 125.5,275.167 125.5,272.833 125.5,270.5C 126.5,269.167 127.5,267.833 128.5,266.5 Z"/></g>
<g><path style="opacity:1" fill="#bb2a36" d="M 92.5,276.5 C 92.5,276.833 92.5,277.167 92.5,277.5C 92.4142,278.496 92.7476,279.329 93.5,280C 109.497,280.5 125.497,280.667 141.5,280.5C 141.5,279.5 141.5,278.5 141.5,277.5C 141.833,277.5 142.167,277.5 142.5,277.5C 142.5,278.833 142.5,280.167 142.5,281.5C 135.833,281.5 129.167,281.5 122.5,281.5C 112.167,281.5 101.833,281.5 91.5,281.5C 91.2155,279.585 91.5489,277.919 92.5,276.5 Z"/></g>
<g><path style="opacity:0.994" fill="#faf7f8" d="M 34.5,281.5 C 44.8333,281.5 55.1667,281.5 65.5,281.5C 65.5,283.167 65.5,284.833 65.5,286.5C 55.5824,287.474 45.5824,287.807 35.5,287.5C 34.5386,285.735 34.2053,283.735 34.5,281.5 Z"/></g>
<g><path style="opacity:1" fill="#18264d" d="M 65.5,281.5 C 71.8333,281.5 78.1667,281.5 84.5,281.5C 84.6621,283.527 84.4955,285.527 84,287.5C 83.3292,288.252 82.4959,288.586 81.5,288.5C 76.1667,287.833 70.8333,287.167 65.5,286.5C 65.5,284.833 65.5,283.167 65.5,281.5 Z"/></g>
<g><path style="opacity:1" fill="#fbf9f9" d="M 91.5,281.5 C 101.833,281.5 112.167,281.5 122.5,281.5C 122.5,283.167 122.5,284.833 122.5,286.5C 112.916,287.473 103.25,287.806 93.5,287.5C 91.9261,285.898 91.2594,283.898 91.5,281.5 Z"/></g>
<g><path style="opacity:1" fill="#1c264d" d="M 122.5,281.5 C 129.167,281.5 135.833,281.5 142.5,281.5C 142.975,284.082 142.308,286.082 140.5,287.5C 134.31,287.823 128.31,287.49 122.5,286.5C 122.5,284.833 122.5,283.167 122.5,281.5 Z"/></g>
<g><path style="opacity:0.008" fill="#7e8588" d="M 65.5,286.5 C 70.8333,287.167 76.1667,287.833 81.5,288.5C 65.9909,288.83 50.6576,288.496 35.5,287.5C 45.5824,287.807 55.5824,287.474 65.5,286.5 Z"/></g>
<g><path style="opacity:0.02" fill="#898a8b" d="M 122.5,286.5 C 128.31,287.49 134.31,287.823 140.5,287.5C 124.833,288.833 109.167,288.833 93.5,287.5C 103.25,287.806 112.916,287.473 122.5,286.5 Z"/></g>
</svg>
